<?xml version="1.0"?>
<svg xmlns="http://www.w3.org/2000/svg" xmlns:xlink="http://www.w3.org/1999/xlink" xmlns:svgjs="http://svgjs.com/svgjs" version="1.1" width="512" height="512" x="0" y="0" viewBox="0 0 512 512.01074" style="enable-background:new 0 0 512 512" xml:space="preserve" class=""><g transform="matrix(1,0,0,1,35,0)"><path xmlns="http://www.w3.org/2000/svg" d="m161.464844 421.523438c-12.863282 0-25.640625 5.457031-34.589844 16.050781-24.910156 29.5-3.566406 74.4375 34.542969 74.4375 12.863281 0 25.640625-5.457031 34.589843-16.054688 24.9375-29.53125 3.527344-74.4375-34.542968-74.433593zm0 0" fill="#ffffff" data-original="#000000" style="" class=""/><path xmlns="http://www.w3.org/2000/svg" d="m270.15625 176.609375c-6.582031-7.332031-50.480469-56.257813-57.046875-63.574219-3.167969-3.535156-7.472656-5.851562-12.171875-6.554687-105.8125-15.929688-39.566406-6.140625-103.082031-16.15625-5.355469-.871094-10.835938.417969-15.234375 3.589843l-72.839844 52.484376c-5.238281 3.777343-8.382812 9.804687-8.480469 16.261718l-1.2929685 85.460938c-.1718745 11.28125 8.8359375 20.5625 20.1132815 20.734375h.316406c11.136719 0 20.246094-8.941407 20.417969-20.117188l1.136719-75.199219 48.125-34.675781 4.917968 124.226563-45 77.355468c-6.351562 10.914063-3.371094 24.863282 6.882813 32.230469l64.980469 46.691407c10.890624-9.488282 24.882812-14.804688 39.566406-14.804688 2.484375 0 4.953125.160156 7.394531.464844-.09375-7.515625-3.632813-14.890625-10.203125-19.613282l-55.058594-39.558593 29.933594-51.453125 27.816406-1.101563 35.625 122.054688c22.609375 16.507812 30.253906 45.726562 20.589844 70.554687l2.46875 8.449219c3.78125 12.960937 17.367188 20.464844 30.394531 16.664063 12.996094-3.792969 20.457031-17.402344 16.664063-30.398438l-63.667969-218.144531-.136719.082031-7.863281 4.902344c-15.984375 9.964844-36.964844 5.039062-46.890625-10.878906-9.941406-15.953126-5.070312-36.949219 10.882812-46.890626l40.773438-25.417968-1.015625-25.605469c5.761719 6.421875 18.601563 20.730469 24.328125 27.113281l-56.886719 35.460938c-9.574219 5.96875-12.496093 18.566406-6.527343 28.140625 5.960937 9.5625 18.554687 12.5 28.136718 6.527343l77.53125-48.332031c10.777344-6.714843 12.867188-21.539062 4.402344-30.972656zm0 0" fill="#ffffff" data-original="#000000" style="" class=""/><path xmlns="http://www.w3.org/2000/svg" d="m183.230469 40.65625c-.925781-23.363281-20.613281-41.550781-43.972657-40.6210938-23.359374.9257818-41.546874 20.6132818-40.621093 43.9726558.925781 23.359376 20.613281 41.546876 43.972656 40.621094 23.359375-.925781 41.546875-20.613281 40.621094-43.972656zm0 0" fill="#ffffff" data-original="#000000" style="" class=""/></g></svg>
